<svg width="42" height="44" viewBox="0 0 42 44" fill="none" xmlns="http://www.w3.org/2000/svg">
<g id="Group">
<path id="Vector" d="M21 44C32.5979 44 42 37.128 42 28.6512C42 26.8799 41.3552 25.1786 40.6 23.5955C35.9332 26.9659 32.3868 28.6512 29.96 28.6512C41.1471 14.3256 35 8.18605 18.2 0C19.6 10.2316 10.3713 14.8858 6.61301 17.4703C2.54201 20.2697 0 24.2434 0 28.6512C0 37.128 9.40201 44 21 44ZM22.9863 7.64368C32.0631 13.2722 32.1065 17.6456 25.0964 26.6223C22.9656 29.3509 25.6614 32.7442 29.96 32.7442C31.8875 32.7442 33.8355 32.3332 35.8929 31.5267C34.1541 36.3501 28.1453 39.907 21 39.907C12.4948 39.907 5.6 34.8676 5.6 28.6512C5.6 25.5012 7.37181 22.5681 10.4503 20.4512C10.8031 20.2087 12.593 19.0491 12.6694 18.999C13.8561 18.2183 14.8338 17.531 15.8001 16.7748C19.2452 14.0786 21.7199 11.0845 22.9863 7.64368Z" fill="#767680"/>
</g>
</svg>
