<svg width="44" height="44" viewBox="0 0 44 44" fill="none" xmlns="http://www.w3.org/2000/svg">
<g id="Group">
<path id="Vector" d="M37.4 39.1111H6.6V41.5556C6.6 42.9056 5.61502 44 4.4 44H2.2C0.984984 44 0 42.9056 0 41.5556V17.1111L5.4571 2.96306C6.15045 1.16549 7.74123 0 9.50134 0H34.4986C36.2589 0 37.8495 1.16549 38.5429 2.96306L44 17.1111V41.5556C44 42.9056 43.0151 44 41.8 44H39.6C38.3849 44 37.4 42.9056 37.4 41.5556V39.1111ZM39.6 22H4.4V34.2222H39.6V22ZM4.78707 17.1111H39.213L34.4986 4.88889H9.50134L4.78707 17.1111ZM9.9 31.7778C8.07745 31.7778 6.6 30.1361 6.6 28.1111C6.6 26.0861 8.07745 24.4444 9.9 24.4444C11.7225 24.4444 13.2 26.0861 13.2 28.1111C13.2 30.1361 11.7225 31.7778 9.9 31.7778ZM34.1 31.7778C32.2775 31.7778 30.8 30.1361 30.8 28.1111C30.8 26.0861 32.2775 24.4444 34.1 24.4444C35.9225 24.4444 37.4 26.0861 37.4 28.1111C37.4 30.1361 35.9225 31.7778 34.1 31.7778Z" fill="#767680"/>
</g>
</svg>
