<svg width="44" height="44" viewBox="0 0 44 44" fill="none" xmlns="http://www.w3.org/2000/svg">
<g id="Group">
<path id="Vector" d="M22 5.7277L9.9006 15.7512C3.2183 21.287 3.2183 30.2622 9.9006 35.7981C16.5829 41.334 27.4171 41.334 34.0992 35.7981C40.7816 30.2622 40.7816 21.287 34.0992 15.7512L22 5.7277ZM22 0L37.5564 12.8873C46.1479 20.0048 46.1479 31.5445 37.5564 38.6619C28.9647 45.7794 15.0352 45.7794 6.44364 38.6619C-2.14788 31.5445 -2.14788 20.0048 6.44364 12.8873L22 0ZM9.77776 25.7747H34.2222C34.2222 31.3667 28.75 35.9 22 35.9C15.2498 35.9 9.77776 31.3667 9.77776 25.7747Z" fill="#767680"/>
</g>
</svg>
